<svg width="18" height="18" viewBox="0 0 18 18" fill="none" xmlns="http://www.w3.org/2000/svg">
<path d="M8.81109 13.7165C8.99388 13.898 9.24166 14 9.5 14C9.75834 14 10.0061 13.898 10.1889 13.7165L14.7384 9.19317C14.9106 9.00943 15.0043 8.7664 14.9998 8.51529C14.9954 8.26418 14.8931 8.02459 14.7145 7.847C14.5358 7.66941 14.2949 7.56768 14.0423 7.56325C13.7898 7.55882 13.5453 7.65203 13.3605 7.82325L10.4749 10.6913L10.4749 0.969289C10.4749 0.712218 10.3722 0.465677 10.1893 0.283899C10.0065 0.102122 9.75855 -4.95453e-07 9.5 -4.72849e-07C9.24145 -4.50246e-07 8.99348 0.102122 8.81066 0.283899C8.62783 0.465677 8.52512 0.712218 8.52512 0.969289L8.52512 10.6913L5.63948 7.82325C5.45467 7.65203 5.21024 7.55882 4.95768 7.56325C4.70512 7.56768 4.46415 7.66941 4.28554 7.847C4.10692 8.02459 4.00461 8.26418 4.00015 8.51529C3.9957 8.7664 4.08944 9.00943 4.26165 9.19318L8.81109 13.7165Z" fill="black"/>
<path d="M2.42188 16L15.5781 16" stroke="black" stroke-width="2" stroke-linecap="round"/>
</svg>
