<svg width="30" height="30" viewBox="0 0 30 30" fill="none" xmlns="http://www.w3.org/2000/svg">
<path fill-rule="evenodd" clip-rule="evenodd" d="M4.98268 4.98341C6.2968 3.66609 7.85825 2.62138 9.57732 1.90929C11.2964 1.19721 13.1392 0.831777 14.9999 0.833994C16.8606 0.831855 18.7034 1.19732 20.4225 1.9094C22.1416 2.62148 23.703 3.66615 25.0172 4.98341C26.3344 6.29758 27.3791 7.85904 28.0912 9.5781C28.8033 11.2972 29.1687 13.14 29.1666 15.0007C29.1687 16.8614 28.8033 18.7042 28.0912 20.4232C27.3791 22.1423 26.3344 23.7037 25.0172 25.0179C23.703 26.3352 22.1416 27.3798 20.4225 28.0919C18.7034 28.804 16.8606 29.1695 14.9999 29.1673C13.1392 29.1695 11.2964 28.804 9.57737 28.0919C7.85831 27.3798 6.29685 26.3352 4.98268 25.0179C3.66542 23.7037 2.62075 22.1423 1.90867 20.4232C1.19659 18.7042 0.831122 16.8614 0.833261 15.0007C0.831122 13.14 1.19659 11.2972 1.90867 9.5781C2.62075 7.85904 3.66542 6.29758 4.98268 4.98341ZM14.9999 3.38399C13.4741 3.38193 11.963 3.6815 10.5533 4.26548C9.1437 4.84947 7.86342 5.70634 6.78609 6.78683C5.70561 7.86415 4.84873 9.14444 4.26475 10.5541C3.68077 11.9637 3.3812 13.4749 3.38326 15.0007C3.38104 16.5265 3.68054 18.0377 4.26453 19.4473C4.84852 20.857 5.70548 22.1373 6.78609 23.2145C7.86337 24.295 9.14365 25.152 10.5533 25.7359C11.9629 26.3199 13.4741 26.6195 14.9999 26.6173C16.5257 26.6194 18.0369 26.3198 19.4465 25.7358C20.8562 25.1519 22.1364 24.295 23.2138 23.2145C24.2943 22.1372 25.1511 20.8569 25.7351 19.4473C26.3191 18.0376 26.6187 16.5265 26.6166 15.0007C26.6187 13.4748 26.3192 11.9637 25.7352 10.554C25.1512 9.14438 24.2943 7.86411 23.2138 6.78683C22.1364 5.70634 20.8562 4.84947 19.4465 4.26548C18.0369 3.6815 16.5257 3.38193 14.9999 3.38399ZM16.4166 20.6673C16.4166 21.0431 16.2673 21.4034 16.0017 21.6691C15.736 21.9347 15.3757 22.084 14.9999 22.084C14.6242 22.084 14.2639 21.9347 13.9982 21.6691C13.7325 21.4034 13.5833 21.0431 13.5833 20.6673C13.5833 20.2916 13.7325 19.9313 13.9982 19.6656C14.2639 19.3999 14.6242 19.2507 14.9999 19.2507C15.3757 19.2507 15.736 19.3999 16.0017 19.6656C16.2673 19.9313 16.4166 20.2916 16.4166 20.6673ZM14.9999 7.91733C15.3381 7.91733 15.6624 8.05166 15.9015 8.29077C16.1406 8.52988 16.2749 8.85418 16.2749 9.19233V16.559C16.2749 16.8971 16.1406 17.2214 15.9015 17.4606C15.6624 17.6997 15.3381 17.834 14.9999 17.834C14.6618 17.834 14.3375 17.6997 14.0984 17.4606C13.8593 17.2214 13.7249 16.8971 13.7249 16.559V9.19233C13.7249 8.85418 13.8593 8.52988 14.0984 8.29077C14.3375 8.05166 14.6618 7.91733 14.9999 7.91733Z" fill="#F27EC5"/>
</svg>
