<svg width="24" height="24" viewBox="0 0 24 24" fill="none" xmlns="http://www.w3.org/2000/svg">
<path d="M12 20.105C14.1496 20.105 16.2111 19.2511 17.7311 17.7311C19.2511 16.2111 20.105 14.1496 20.105 12C20.105 9.85042 19.2511 7.78888 17.7311 6.2689C16.2111 4.74892 14.1496 3.895 12 3.895C9.85042 3.895 7.78888 4.74892 6.2689 6.2689C4.74892 7.78888 3.895 9.85042 3.895 12C3.895 14.1496 4.74892 16.2111 6.2689 17.7311C7.78888 19.2511 9.85042 20.105 12 20.105ZM12 22C6.477 22 2 17.523 2 12C2 6.477 6.477 2 12 2C17.523 2 22 6.477 22 12C22 17.523 17.523 22 12 22ZM12 9.628C11.651 9.628 11.3162 9.48935 11.0694 9.24255C10.8226 8.99575 10.684 8.66103 10.684 8.312C10.684 7.96298 10.8226 7.62825 11.0694 7.38145C11.3162 7.13465 11.651 6.996 12 6.996C12.349 6.996 12.6838 7.13465 12.9306 7.38145C13.1774 7.62825 13.316 7.96298 13.316 8.312C13.316 8.66103 13.1774 8.99575 12.9306 9.24255C12.6838 9.48935 12.349 9.628 12 9.628ZM11.053 12.45C11.053 11.909 11.477 11.47 12 11.47C12.523 11.47 12.947 11.909 12.947 12.45V16.28C12.947 16.82 12.523 17.26 12 17.26C11.477 17.26 11.053 16.82 11.053 16.28V12.45Z" fill="black"/>
</svg>
