<svg width="16" height="16" viewBox="0 0 16 16" fill="none" xmlns="http://www.w3.org/2000/svg">
<path d="M11.4167 5.5C11.6156 5.5 11.8063 5.42098 11.947 5.28033C12.0876 5.13968 12.1667 4.94891 12.1667 4.75C12.1667 4.55109 12.0876 4.36032 11.947 4.21967C11.8063 4.07902 11.6156 4 11.4167 4H4.58333C4.38442 4 4.19366 4.07902 4.053 4.21967C3.91235 4.36032 3.83333 4.55109 3.83333 4.75C3.83333 4.94891 3.91235 5.13968 4.053 5.28033C4.19366 5.42098 4.38442 5.5 4.58333 5.5H11.4167ZM12.1667 8C12.1667 8.19891 12.0876 8.38968 11.947 8.53033C11.8063 8.67098 11.6156 8.75 11.4167 8.75H4.58333C4.48484 8.75 4.38731 8.7306 4.29632 8.69291C4.20533 8.65522 4.12265 8.59997 4.053 8.53033C3.98336 8.46069 3.92811 8.37801 3.89042 8.28701C3.85273 8.19602 3.83333 8.09849 3.83333 8C3.83333 7.90151 3.85273 7.80398 3.89042 7.71299C3.92811 7.62199 3.98336 7.53931 4.053 7.46967C4.12265 7.40003 4.20533 7.34478 4.29632 7.30709C4.38731 7.2694 4.48484 7.25 4.58333 7.25H11.4167C11.6156 7.25 11.8063 7.32902 11.947 7.46967C12.0876 7.61032 12.1667 7.80109 12.1667 8ZM7.25 12C7.44891 12 7.63968 11.921 7.78033 11.7803C7.92098 11.6397 8 11.4489 8 11.25C8 11.0511 7.92098 10.8603 7.78033 10.7197C7.63968 10.579 7.44891 10.5 7.25 10.5H4.58333C4.38442 10.5 4.19366 10.579 4.053 10.7197C3.91235 10.8603 3.83333 11.0511 3.83333 11.25C3.83333 11.4489 3.91235 11.6397 4.053 11.7803C4.19366 11.921 4.38442 12 4.58333 12H7.25ZM10.115 0.5H5.885C5.095 0.5 4.45667 0.5 3.94 0.541667C3.40667 0.585833 2.9375 0.6775 2.50167 0.9C1.81212 1.25147 1.25147 1.81212 0.9 2.50167C0.6775 2.9375 0.585833 3.4075 0.541667 3.94C0.5 4.45667 0.5 5.095 0.5 5.885V10.115C0.5 10.905 0.5 11.5433 0.541667 12.06C0.585833 12.5933 0.6775 13.0625 0.9 13.4983C1.25147 14.1879 1.81212 14.7485 2.50167 15.1C2.9375 15.3225 3.4075 15.4142 3.94 15.4583C4.45667 15.5 5.095 15.5 5.885 15.5H10.115C10.905 15.5 11.5433 15.5 12.06 15.4583C12.5933 15.4142 13.0625 15.3225 13.4983 15.1C14.1879 14.7485 14.7485 14.1879 15.1 13.4983C15.3225 13.0625 15.4142 12.5925 15.4583 12.06C15.5 11.5433 15.5 10.905 15.5 10.115V5.885C15.5 5.095 15.5 4.45667 15.4583 3.94C15.4142 3.40667 15.3225 2.9375 15.1 2.50167C14.7485 1.81212 14.1879 1.25147 13.4983 0.9C13.0625 0.6775 12.5925 0.585833 12.06 0.541667C11.5433 0.5 10.905 0.5 10.115 0.5ZM3.18333 2.23583C3.37167 2.14 3.6225 2.07333 4.06167 2.0375C4.51083 2 5.0875 2 5.91667 2H10.0833C10.9125 2 11.4892 2 11.9383 2.0375C12.3775 2.07333 12.6283 2.14 12.8167 2.23583C13.2247 2.44362 13.5564 2.77532 13.7642 3.18333C13.86 3.37167 13.9267 3.6225 13.9625 4.06167C13.9992 4.51083 14 5.0875 14 5.91667V10.0833C14 10.9125 14 11.4892 13.9625 11.9383C13.9267 12.3775 13.86 12.6283 13.7642 12.8167C13.5564 13.2247 13.2247 13.5564 12.8167 13.7642C12.6283 13.86 12.3775 13.9267 11.9375 13.9625C11.4892 13.9992 10.9125 14 10.0833 14H5.91667C5.0875 14 4.51083 14 4.06167 13.9625C3.6225 13.9267 3.37167 13.86 3.18333 13.7642C2.77532 13.5564 2.44362 13.2247 2.23583 12.8167C2.14 12.6283 2.07333 12.3775 2.0375 11.9375C2.00083 11.4892 2 10.9125 2 10.0833V5.91667C2 5.0875 2 4.51083 2.0375 4.06167C2.07333 3.6225 2.14 3.37167 2.23583 3.18333C2.44362 2.77532 2.77532 2.44362 3.18333 2.23583Z" fill="black"/>
</svg>
