<svg width="24" height="24" viewBox="0 0 24 24" fill="none" xmlns="http://www.w3.org/2000/svg">
<path d="M17.0001 13.4992C20.6881 13.4992 23.9001 14.8092 23.9001 17.7562C23.9001 19.3102 23.2561 19.9992 21.9411 19.9992H16.3451C15.8021 19.9992 15.4181 19.4482 15.5251 18.9152C15.6011 18.5422 15.9151 18.1992 16.2951 18.1992L22.0781 18.2012C22.0781 18.2012 22.1001 17.9042 22.1001 17.7562C22.1001 16.2442 19.7821 15.2992 17.0001 15.2992C16.5281 15.2992 16.0701 15.3262 15.6331 15.3792C15.4685 15.3973 15.3022 15.3697 15.1523 15.2995C15.0023 15.2293 14.8746 15.1192 14.7831 14.9812C14.4331 14.4652 14.6171 13.6852 15.2361 13.6062C15.8213 13.5336 16.4104 13.4979 17.0001 13.4992ZM7.0001 13.4992C10.6881 13.4992 13.9001 14.8092 13.9001 17.7562C13.9001 19.3102 13.2561 19.9992 11.9411 19.9992H2.0601C0.744098 19.9992 0.100098 19.3092 0.100098 17.7562C0.100098 14.8092 3.3121 13.4992 7.0001 13.4992ZM7.0001 15.2992C4.2181 15.2992 1.9001 16.2442 1.9001 17.7562C1.9001 17.9052 1.9201 18.2012 1.9201 18.2012H12.0781C12.0781 18.2012 12.1001 17.9042 12.1001 17.7562C12.1001 16.2442 9.7821 15.2992 7.0001 15.2992ZM17.0001 4.19922C18.1007 4.19922 19.1563 4.63645 19.9346 5.41473C20.7129 6.193 21.1501 7.24857 21.1501 8.34922C21.1501 9.44987 20.7129 10.5054 19.9346 11.2837C19.1563 12.062 18.1007 12.4992 17.0001 12.4992C15.8994 12.4992 14.8439 12.062 14.0656 11.2837C13.2873 10.5054 12.8501 9.44987 12.8501 8.34922C12.8501 7.24857 13.2873 6.193 14.0656 5.41473C14.8439 4.63645 15.8994 4.19922 17.0001 4.19922ZM7.0001 4.19922C8.10075 4.19922 9.15631 4.63645 9.93459 5.41473C10.7129 6.193 11.1501 7.24857 11.1501 8.34922C11.1501 9.44987 10.7129 10.5054 9.93459 11.2837C9.15631 12.062 8.10075 12.4992 7.0001 12.4992C5.89945 12.4992 4.84388 12.062 4.0656 11.2837C3.28733 10.5054 2.8501 9.44987 2.8501 8.34922C2.8501 7.24857 3.28733 6.193 4.0656 5.41473C4.84388 4.63645 5.89945 4.19922 7.0001 4.19922ZM17.0001 5.99922C16.3768 5.99922 15.7791 6.24681 15.3384 6.68752C14.8977 7.12823 14.6501 7.72596 14.6501 8.34922C14.6501 8.97248 14.8977 9.57021 15.3384 10.0109C15.7791 10.4516 16.3768 10.6992 17.0001 10.6992C17.6234 10.6992 18.2211 10.4516 18.6618 10.0109C19.1025 9.57021 19.3501 8.97248 19.3501 8.34922C19.3501 7.72596 19.1025 7.12823 18.6618 6.68752C18.2211 6.24681 17.6234 5.99922 17.0001 5.99922ZM7.0001 5.99922C6.37684 5.99922 5.77911 6.24681 5.3384 6.68752C4.89769 7.12823 4.6501 7.72596 4.6501 8.34922C4.6501 8.97248 4.89769 9.57021 5.3384 10.0109C5.77911 10.4516 6.37684 10.6992 7.0001 10.6992C7.62336 10.6992 8.22109 10.4516 8.6618 10.0109C9.10251 9.57021 9.3501 8.97248 9.3501 8.34922C9.3501 7.72596 9.10251 7.12823 8.6618 6.68752C8.22109 6.24681 7.62336 5.99922 7.0001 5.99922Z" fill="black"/>
</svg>
