<svg width="24" height="24" viewBox="0 0 24 24" fill="none" xmlns="http://www.w3.org/2000/svg">
<path d="M15.5 7.5C15.7387 7.5 15.9676 7.59482 16.1364 7.7636C16.3052 7.93239 16.4 8.1613 16.4 8.4V9.1H17.1C17.3387 9.1 17.5676 9.19482 17.7364 9.3636C17.9052 9.53239 18 9.76131 18 10C18 10.2387 17.9052 10.4676 17.7364 10.6364C17.5676 10.8052 17.3387 10.9 17.1 10.9H16.4V11.6C16.4 11.8387 16.3052 12.0676 16.1364 12.2364C15.9676 12.4052 15.7387 12.5 15.5 12.5C15.2613 12.5 15.0324 12.4052 14.8636 12.2364C14.6948 12.0676 14.6 11.8387 14.6 11.6V10.9H13.9C13.6613 10.9 13.4324 10.8052 13.2636 10.6364C13.0948 10.4676 13 10.2387 13 10C13 9.76131 13.0948 9.53239 13.2636 9.3636C13.4324 9.19482 13.6613 9.1 13.9 9.1H14.6V8.4C14.6 8.1613 14.6948 7.93239 14.8636 7.7636C15.0324 7.59482 15.2613 7.5 15.5 7.5Z" fill="black"/>
<path fill-rule="evenodd" clip-rule="evenodd" d="M12.111 5.7C13.239 4.643 14.541 4.07 15.991 4.006L16.267 4C19.423 4 22 6.56 22 9.717C22 12.676 20.965 14.144 16.427 17.778L15.494 18.518L13.13 20.361C12.8071 20.6127 12.4094 20.7494 12 20.7494C11.5906 20.7494 11.1929 20.6127 10.87 20.361L8.182 18.263C3.127 14.269 2 12.805 2 9.717C2 6.56 4.577 4 7.734 4C9.274 4 10.663 4.576 11.872 5.695L11.994 5.813L12.111 5.7ZM20.2 9.717C20.2 7.557 18.431 5.8 16.266 5.8C14.909 5.8 13.739 6.416 12.702 7.708C12.6181 7.81246 12.512 7.89689 12.3914 7.95512C12.2707 8.01335 12.1386 8.04392 12.0047 8.04459C11.8707 8.04526 11.7383 8.01602 11.6171 7.959C11.4959 7.90198 11.3889 7.81862 11.304 7.715C10.24 6.418 9.067 5.8 7.734 5.8C5.57 5.8 3.8 7.557 3.8 9.717C3.8 11.967 4.597 13.097 8.739 16.407L9.613 17.098L11.977 18.941C11.991 18.951 12.009 18.951 12.023 18.941L14.686 16.863C19.133 13.352 20.119 12.167 20.196 10.011L20.2 9.717Z" fill="black"/>
</svg>
