<svg width="94" height="84" viewBox="0 0 94 84" fill="none" xmlns="http://www.w3.org/2000/svg">
<path fill-rule="evenodd" clip-rule="evenodd" d="M41.5906 42.5392C39.9331 45.8429 39.0001 49.5729 39.0001 53.5208C39.0001 54.9019 39.1143 56.2564 39.3338 57.5753L26.5727 70.3364C20.5763 76.3329 10.8541 76.3329 4.85768 70.3364C-1.13876 64.34 -1.13876 54.6179 4.85767 48.6214L26.2652 27.2139L41.5906 42.5392Z" fill="white"/>
<path d="M48.7002 4.85773C54.6967 -1.13877 64.4195 -1.13877 70.416 4.85773C76.4125 10.8542 76.4125 20.577 70.416 26.5735L67.6426 29.346C66.3029 29.1193 64.9266 29.0003 63.5225 29.0003C54.816 29.0003 47.1686 33.5371 42.8174 40.3763L28 25.5589L48.7002 4.85773Z" fill="white"/>
<mask id="mask0_2373_11497" style="mask-type:alpha" maskUnits="userSpaceOnUse" x="41" y="31" width="44" height="44">
<circle cx="63.4334" cy="53.434" r="21.52" transform="rotate(-45.3338 63.4334 53.434)" fill="#D9D9D9"/>
</mask>
<g mask="url(#mask0_2373_11497)">
<path d="M110.496 49.2543L65.5051 94.772L44.8799 74.3857L89.8703 28.868L110.496 49.2543Z" fill="white"/>
</g>
<mask id="mask1_2373_11497" style="mask-type:alpha" maskUnits="userSpaceOnUse" x="41" y="31" width="44" height="44">
<ellipse cx="63.0805" cy="53.0812" rx="21.52" ry="21.02" transform="rotate(135.048 63.0805 53.0812)" fill="#D9D9D9"/>
</mask>
<g mask="url(#mask1_2373_11497)">
<path d="M17.6943 57.4506L62.9872 12.2338L83 32.2803L37.7071 77.497L17.6943 57.4506Z" fill="white"/>
</g>
</svg>
