<svg width="30" height="30" viewBox="0 0 30 30" fill="none" xmlns="http://www.w3.org/2000/svg">
<path d="M22.4003 14.2393L10.776 7.55084C10.1992 7.2191 9.47852 7.63377 9.47852 8.29725V21.6742C9.47852 22.2814 10.1381 22.6607 10.6656 22.3571L22.4003 15.6052C22.9278 15.3016 22.9278 14.5429 22.4003 14.2393Z" fill="#6966D0"/>
<mask id="mask0_2480_21027" style="mask-type:luminance" maskUnits="userSpaceOnUse" x="0" y="0" width="30" height="30">
<path d="M0 0H30V29.8985H0V0Z" fill="white"/>
</mask>
<g mask="url(#mask0_2480_21027)">
<path d="M24.1336 24.0516C21.6939 26.483 18.4502 27.8222 15 27.8222C11.5498 27.8222 8.30612 26.483 5.86642 24.0516C3.42672 21.6202 2.08331 18.3876 2.08331 14.9491C2.08331 11.5105 3.42672 8.27791 5.86642 5.8465C8.30612 3.41508 11.5498 2.07624 15 2.07624C18.4502 2.07624 21.6939 3.41508 24.1336 5.8465C26.5733 8.27791 27.9167 11.5105 27.9167 14.9491C27.9167 18.3876 26.5733 21.6202 24.1336 24.0516ZM15 0C6.71559 0 0 6.69279 0 14.9491C0 23.2053 6.71559 29.8985 15 29.8985C23.2844 29.8985 30 23.2053 30 14.9491C30 6.69279 23.2844 0 15 0Z" fill="#6966D0"/>
</g>
</svg>
